<?xml version="1.0" standalone="no"?>
<!DOCTYPE svg PUBLIC "-//W3C//DTD SVG 20010904//EN"
 "http://www.w3.org/TR/2001/REC-SVG-20010904/DTD/svg10.dtd">
<svg version="1.0" xmlns="http://www.w3.org/2000/svg"
 width="182.000000pt" height="182.000000pt" viewBox="0 0 182.000000 182.000000"
 preserveAspectRatio="xMidYMid meet">
<metadata>
Created by potrace 1.14, written by Peter Selinger 2001-2017
</metadata>
<g transform="translate(0.000000,182.000000) scale(0.100000,-0.100000)"
fill="#000000" stroke="none">
<path d="M558 1474 c-183 -185 -369 -372 -413 -415 -44 -44 -92 -91 -108 -107
-15 -15 -26 -35 -25 -44 4 -20 868 -898 884 -898 6 0 158 147 337 328 488 490
558 563 555 573 -5 13 -861 879 -880 890 -14 7 -77 -51 -350 -327z m458 -206
c1 -363 1 -363 26 -423 13 -33 59 -142 101 -242 42 -99 77 -187 77 -195 0 -16
-287 -301 -293 -291 -11 20 -15 860 -4 920 3 18 2 35 -2 37 -3 2 -5 22 -3 43
1 21 3 160 3 308 1 149 3 273 6 278 2 4 23 -11 46 -33 l42 -39 1 -363z m-145
405 c7 -129 3 -350 -5 -362 -7 -9 -7 -13 -1 -9 12 7 14 -1176 2 -1188 -4 -5
-72 57 -151 137 -158 159 -153 150 -113 241 13 29 41 94 62 143 20 50 53 126
72 170 l36 80 3 320 c2 176 3 343 3 372 1 45 5 55 37 87 43 43 54 45 55 9z
m-141 -341 c-1 -125 2 -236 6 -245 3 -9 2 -17 -2 -17 -5 0 -9 -39 -9 -88 -1
-87 -1 -88 -90 -297 -48 -115 -94 -216 -101 -224 -10 -11 -22 -4 -71 46 -32
33 -69 71 -82 86 l-24 26 89 89 c49 49 111 112 138 140 l49 51 0 133 c-1 88 3
135 11 140 7 5 7 8 0 8 -7 0 -10 46 -8 143 1 78 2 147 3 153 1 13 72 84 83 84
5 0 8 -103 8 -228z m390 189 c22 -22 40 -50 41 -63 4 -108 3 -188 -4 -188 -5
0 -5 -4 -2 -10 11 -19 14 -50 4 -55 -5 -4 -6 -12 -2 -18 10 -16 11 -128 1
-149 -6 -11 -5 -18 2 -18 7 0 8 -6 1 -19 -6 -10 -9 -20 -7 -22 2 -2 6 -24 9
-48 4 -40 14 -53 136 -175 72 -72 131 -136 131 -142 0 -17 -160 -168 -168
-158 -5 5 -22 43 -40 84 -17 41 -59 140 -93 220 l-62 145 -2 310 c-1 290 1
345 12 345 2 0 22 -18 43 -39z m-532 -347 l0 -246 -41 -46 c-88 -95 -216 -222
-225 -222 -6 0 -169 159 -250 245 -4 4 501 515 509 515 3 0 6 -111 7 -246z
m883 -6 c137 -139 249 -256 249 -261 0 -10 -237 -247 -247 -247 -14 0 -263
255 -264 271 -1 19 -1 359 0 432 1 31 4 57 7 57 3 0 118 -114 255 -252z"/>
</g>
</svg>
