<svg width="25" height="24" viewBox="0 0 25 24" fill="none" xmlns="http://www.w3.org/2000/svg">
<g id="icons8-&#208;&#190;&#209;&#129;-mac-60 1">
<path id="Vector" d="M20.952 7.82801C20.8536 7.88961 18.5112 9.18961 18.5112 12.072C18.6216 15.3592 21.4672 16.512 21.516 16.512C21.4672 16.5736 21.0864 18.0824 19.9584 19.664C19.0632 21.0264 18.0696 22.4 16.5608 22.4C15.1256 22.4 14.6104 21.492 12.9544 21.492C11.176 21.492 10.6728 22.4 9.31116 22.4C7.80236 22.4 6.73516 20.9528 5.79116 19.6032C4.56476 17.8368 3.52236 15.0648 3.48556 12.4032C3.46076 10.9928 3.73116 9.60641 4.41756 8.42881C5.38636 6.78481 7.11596 5.66881 9.00476 5.63201C10.452 5.58321 11.74 6.62561 12.6232 6.62561C13.4696 6.62561 15.052 5.63201 16.8424 5.63201C17.6152 5.63281 19.676 5.86561 20.952 7.82801ZM12.5008 5.35041C12.2432 4.06241 12.9544 2.77441 13.6168 1.95281C14.4632 0.959205 15.8 0.284805 16.9528 0.284805C17.0264 1.57281 16.56 2.83601 15.7264 3.75601C14.9784 4.74961 13.6904 5.49761 12.5008 5.35041Z" fill="#263238"/>
</g>
</svg>
