<svg width="25" height="24" viewBox="0 0 25 24" fill="none" xmlns="http://www.w3.org/2000/svg">
<g id="mail_120263 1">
<path id="Vector" d="M4.34675 17.8603C4.54422 17.956 4.76584 18.0096 5 18.0096H20C20.2342 18.0096 20.4558 17.956 20.6533 17.8603L14.7446 12.2992L12.8179 13.886C12.6332 14.038 12.3668 14.038 12.1821 13.886L10.2554 12.2992L4.34675 17.8603ZM3.6431 17.1498C3.64773 17.1451 3.65247 17.1405 3.65732 17.1359L9.4772 11.6584L3.68215 6.88597C3.66951 6.87556 3.65752 6.86466 3.64617 6.85332C3.55247 7.04913 3.5 7.26844 3.5 7.5V16.5096C3.5 16.7386 3.55132 16.9557 3.6431 17.1498ZM21.3569 17.1498C21.4487 16.9557 21.5 16.7386 21.5 16.5096V7.5C21.5 7.26844 21.4475 7.04914 21.3538 6.85333C21.3425 6.86466 21.3305 6.87556 21.3179 6.88597L15.5228 11.6584L21.3427 17.1359C21.3475 17.1405 21.3523 17.1451 21.3569 17.1498ZM20.6444 6.1451C20.4492 6.05207 20.2307 6 20 6H5C4.76933 6 4.55081 6.05207 4.35557 6.1451L12.5 12.8523L20.6444 6.1451ZM5 5H20C21.3807 5 22.5 6.11929 22.5 7.5V16.5096C22.5 17.8903 21.3807 19.0096 20 19.0096H5C3.61929 19.0096 2.5 17.8903 2.5 16.5096V7.5C2.5 6.11929 3.61929 5 5 5Z" fill="#0B0C0E"/>
</g>
</svg>
