<svg width="32" height="37" viewBox="0 0 32 37" fill="none" xmlns="http://www.w3.org/2000/svg">
<path d="M16.642 28.7407L15.8519 29.3333L15.0617 28.7407C7.7284 23.2407 4 18.5802 4 14.5185C4 8.06922 8.95234 2.66667 15.8519 2.66667C22.7514 2.66667 27.7037 8.06922 27.7037 14.5185C27.7037 18.5802 23.9753 23.2407 16.642 28.7407ZM15.8519 17.1523C14.3973 17.1523 13.2181 15.9731 13.2181 14.5185C13.2181 13.0639 14.3973 11.8848 15.8519 11.8848C17.3064 11.8848 18.4856 13.0639 18.4856 14.5185C18.4856 15.9731 17.3064 17.1523 15.8519 17.1523Z" fill="#0B0C0E"/>
<path d="M28 35.5C28 36.3284 22.6274 37 16 37C9.37258 37 4 36.3284 4 35.5C4 34.6716 9.37258 34 16 34C22.6274 34 28 34.6716 28 35.5Z" fill="black"/>
</svg>
