<svg width="95" height="21" viewBox="0 0 95 21" fill="none" xmlns="http://www.w3.org/2000/svg">
<path d="M12.7244 20.5V6.67567L12.5978 7.53354L7.9147 20.5H6.95839L2.23309 7.53354L2.12058 6.67567V20.5H0.306399V0.333071H1.24865L7.36623 16.8716L7.42248 17.617L7.47874 16.8716L13.5823 0.333071H14.5386V20.5H12.7244ZM27.2935 15.8028H20.9087L19.5868 20.5H17.7023L23.6089 0.333071H24.5652L30.5 20.5H28.6295L27.2935 15.8028ZM21.401 14.073H26.8154L24.1574 4.77711L24.1011 4.03175L24.0449 4.77711L21.401 14.073ZM32.5105 20.5V19.6421L41.497 2.06287H32.7917V0.333071H43.8597V1.205L34.8731 18.7702H43.8597V20.5H32.5105ZM58.9632 15.8309C58.9632 16.5154 58.8319 17.1576 58.5694 17.7576C58.3163 18.3577 57.9647 18.8827 57.5147 19.3327C57.0646 19.7828 56.5396 20.139 55.9396 20.4016C55.3395 20.6547 54.6973 20.7813 54.0129 20.7813H52.5784C51.894 20.7813 51.2471 20.6547 50.6377 20.4016C50.0376 20.139 49.5126 19.7828 49.0626 19.3327C48.6125 18.8827 48.2563 18.3577 47.9937 17.7576C47.7406 17.1576 47.614 16.5154 47.614 15.8309V5.00212C47.614 4.3177 47.7406 3.67547 47.9937 3.07544C48.2563 2.4754 48.6125 1.95036 49.0626 1.50033C49.5126 1.0503 50.0376 0.698719 50.6377 0.445578C51.2471 0.183061 51.894 0.0518025 52.5784 0.0518025H54.0129C54.6973 0.0518025 55.3395 0.183061 55.9396 0.445578C56.5396 0.698719 57.0646 1.0503 57.5147 1.50033C57.9647 1.95036 58.3163 2.4754 58.5694 3.07544C58.8319 3.67547 58.9632 4.3177 58.9632 5.00212V15.8309ZM57.149 5.00212C57.149 4.55209 57.0646 4.13488 56.8959 3.75048C56.7271 3.3567 56.4974 3.01449 56.2068 2.72385C55.9161 2.43321 55.5739 2.2035 55.1801 2.03474C54.7957 1.86598 54.3785 1.7816 53.9285 1.7816H52.6628C52.2128 1.7816 51.7909 1.86598 51.3971 2.03474C51.0127 2.2035 50.6705 2.43321 50.3705 2.72385C50.0798 3.01449 49.8501 3.3567 49.6813 3.75048C49.5126 4.13488 49.4282 4.55209 49.4282 5.00212V15.8309C49.4282 16.281 49.5126 16.7029 49.6813 17.0967C49.8501 17.4811 50.0798 17.8233 50.3705 18.1233C50.6705 18.4139 51.0127 18.6436 51.3971 18.8124C51.7909 18.9812 52.2128 19.0655 52.6628 19.0655H53.9285C54.3785 19.0655 54.7957 18.9812 55.1801 18.8124C55.5739 18.6436 55.9161 18.4139 56.2068 18.1233C56.4974 17.8233 56.7271 17.4811 56.8959 17.0967C57.0646 16.7029 57.149 16.281 57.149 15.8309V5.00212ZM74.9246 15.8309C74.9246 16.5154 74.7933 17.1576 74.5308 17.7576C74.2777 18.3577 73.9261 18.8827 73.4761 19.3327C73.026 19.7828 72.501 20.139 71.901 20.4016C71.3009 20.6547 70.6587 20.7813 69.9743 20.7813H68.5398C67.8554 20.7813 67.2085 20.6547 66.5991 20.4016C65.999 20.139 65.474 19.7828 65.024 19.3327C64.5739 18.8827 64.2177 18.3577 63.9551 17.7576C63.702 17.1576 63.5754 16.5154 63.5754 15.8309V5.00212C63.5754 4.3177 63.702 3.67547 63.9551 3.07544C64.2177 2.4754 64.5739 1.95036 65.024 1.50033C65.474 1.0503 65.999 0.698719 66.5991 0.445578C67.2085 0.183061 67.8554 0.0518025 68.5398 0.0518025H69.9743C70.6587 0.0518025 71.3009 0.183061 71.901 0.445578C72.501 0.698719 73.026 1.0503 73.4761 1.50033C73.9261 1.95036 74.2777 2.4754 74.5308 3.07544C74.7933 3.67547 74.9246 4.3177 74.9246 5.00212V15.8309ZM73.1104 5.00212C73.1104 4.55209 73.026 4.13488 72.8573 3.75048C72.6885 3.3567 72.4588 3.01449 72.1682 2.72385C71.8775 2.43321 71.5353 2.2035 71.1415 2.03474C70.7571 1.86598 70.3399 1.7816 69.8899 1.7816H68.6242C68.1742 1.7816 67.7523 1.86598 67.3585 2.03474C66.9741 2.2035 66.6319 2.43321 66.3319 2.72385C66.0412 3.01449 65.8115 3.3567 65.6428 3.75048C65.474 4.13488 65.3896 4.55209 65.3896 5.00212V15.8309C65.3896 16.281 65.474 16.7029 65.6428 17.0967C65.8115 17.4811 66.0412 17.8233 66.3319 18.1233C66.6319 18.4139 66.9741 18.6436 67.3585 18.8124C67.7523 18.9812 68.1742 19.0655 68.6242 19.0655H69.8899C70.3399 19.0655 70.7571 18.9812 71.1415 18.8124C71.5353 18.6436 71.8775 18.4139 72.1682 18.1233C72.4588 17.8233 72.6885 17.4811 72.8573 17.0967C73.026 16.7029 73.1104 16.281 73.1104 15.8309V5.00212ZM92.2502 20.5V6.67567L92.1236 7.53354L87.4405 20.5H86.4842L81.7589 7.53354L81.6464 6.67567V20.5H79.8322V0.333071H80.7744L86.892 16.8716L86.9483 17.617L87.0045 16.8716L93.108 0.333071H94.0643V20.5H92.2502Z" fill="#0B0C0E"/>
</svg>
