<svg width="273" height="273" viewBox="0 0 273 273" fill="none" xmlns="http://www.w3.org/2000/svg">
<path d="M242.667 0H30.3333C13.65 0 0 13.65 0 30.3333V242.667C0 259.35 13.65 273 30.3333 273H242.667C259.35 273 273 259.35 273 242.667V30.3333C273 13.65 259.35 0 242.667 0ZM30.3333 260.867C20.3233 260.867 12.1333 252.677 12.1333 242.667V217.793L84.9333 139.23L202.02 260.867H30.3333ZM260.867 242.667C260.867 252.677 252.677 260.867 242.667 260.867H218.703L131.343 169.867L198.683 99.7967L260.867 166.833V242.667ZM260.867 148.937L203.233 86.7533L202.93 86.45C202.627 86.45 202.627 86.1467 202.323 86.1467C202.323 86.1467 202.02 85.8433 201.717 85.8433C201.413 85.8433 201.413 85.54 201.11 85.54C200.807 85.54 200.807 85.54 200.503 85.2367H196.863C196.56 85.2367 196.56 85.2367 196.257 85.54C195.953 85.54 195.953 85.8433 195.65 85.8433C195.347 85.8433 195.347 86.1467 195.043 86.1467C194.74 86.1467 194.74 86.45 194.437 86.45L194.133 86.7533L122.85 161.07L89.18 126.187C89.18 126.187 88.8767 126.187 88.8767 125.883C88.5733 125.58 88.5733 125.58 88.27 125.58C88.27 125.58 87.9667 125.277 87.6633 125.277C87.36 125.277 87.36 124.973 87.0567 124.973C86.7533 124.973 86.7533 124.973 86.45 124.67H82.81C82.5067 124.67 82.5067 124.67 82.2033 124.973C81.9 124.973 81.9 124.973 81.5967 125.277C81.2933 125.277 81.2933 125.58 80.99 125.58C80.6867 125.58 80.6867 125.883 80.3833 125.883C80.3833 125.883 80.08 125.883 80.08 126.187L12.1333 199.897V30.3333C12.1333 20.3233 20.3233 12.1333 30.3333 12.1333H242.667C252.677 12.1333 260.867 20.3233 260.867 30.3333V148.937ZM66.7333 36.4C50.05 36.4 36.4 50.05 36.4 66.7333C36.4 83.4167 50.05 97.0667 66.7333 97.0667C83.4167 97.0667 97.0667 83.4167 97.0667 66.7333C97.0667 50.05 83.4167 36.4 66.7333 36.4ZM66.7333 84.9333C56.7233 84.9333 48.5333 76.7433 48.5333 66.7333C48.5333 56.7233 56.7233 48.5333 66.7333 48.5333C76.7433 48.5333 84.9333 56.7233 84.9333 66.7333C84.9333 76.7433 76.7433 84.9333 66.7333 84.9333Z" fill="#F7F7F7"/>
</svg>
