<svg width="24" height="24" viewBox="0 0 24 24" fill="none" xmlns="http://www.w3.org/2000/svg">
<g id="Whatsapp_icon-icons.com_66931 1" clip-path="url(#clip0_7_2396)">
<g id="Layer_x0020_1">
<g id="_316006000">
<path id="_316005568" fill-rule="evenodd" clip-rule="evenodd" d="M8.56657 19.2177L4.29375 20.5775L3 20.9892L4.81751 15.6208C4.51251 15.0602 4.27091 14.4663 4.09878 13.8512C3.88998 13.1049 3.78462 12.3337 3.78462 11.5588C3.78462 9.27845 4.69187 7.11664 6.30923 5.51231C7.93184 3.90275 10.1098 3.01089 12.3949 3.01089C14.6792 3.01089 16.856 3.90382 18.4772 5.51361C20.0939 7.11891 21 9.28122 21 11.5615C21 13.8414 20.0929 16.0029 18.476 17.6072C16.854 19.2165 14.6768 20.1086 12.3923 20.1086C11.6675 20.1086 10.9455 20.0191 10.2432 19.8395C9.66406 19.6913 9.10199 19.4826 8.56655 19.2177L8.56657 19.2177Z" fill="#EEEEEE"/>
<path id="_316005808" fill-rule="evenodd" clip-rule="evenodd" d="M20.3135 11.5615C20.3135 9.39006 19.4269 7.42403 17.9935 6.0007C16.5603 4.57758 14.5808 3.69735 12.3948 3.69735C10.207 3.69735 8.22656 4.57728 6.79265 5.99964C5.35812 7.42263 4.47106 9.3883 4.47106 11.5587C4.47106 12.2873 4.57183 12.9943 4.75984 13.6662C4.94667 14.3338 5.21998 14.9659 5.56642 15.5494L4.19406 19.6028L4.08557 19.9233L4.40792 19.8207L8.62892 18.4774C9.18775 18.7782 9.78565 19.0138 10.4133 19.1744C11.0458 19.3362 11.7086 19.4221 12.3923 19.4221C14.5792 19.4221 16.559 18.5422 17.9925 17.1199C19.4267 15.6969 20.3135 13.7315 20.3135 11.5615L20.3135 11.5615Z" fill="#54CC61"/>
<path id="_316006024" fill-rule="evenodd" clip-rule="evenodd" d="M11.1067 9.41479C11.0719 9.34474 10.8712 8.85997 10.6862 8.41314C10.5679 8.12748 10.4551 7.85508 10.433 7.80239C10.2247 7.30563 9.99439 7.32061 9.81776 7.33208C9.80616 7.33283 9.79499 7.33356 9.78006 7.33356C9.71843 7.33356 9.65786 7.32973 9.59509 7.32575C9.51661 7.32077 9.43515 7.31561 9.35817 7.31561C9.25583 7.31561 9.11642 7.33684 8.96964 7.40555C8.86078 7.4565 8.74847 7.53322 8.64569 7.64615C8.6307 7.66234 8.6194 7.67422 8.60714 7.6871C8.36258 7.94417 7.82947 8.50454 7.82947 9.58075C7.82947 10.7097 8.64356 11.7833 8.76318 11.9409L8.76276 11.9412L8.76386 11.9427L8.76521 11.944C8.7699 11.9501 8.78717 11.9754 8.81271 12.0127C9.11336 12.4524 10.4955 14.4739 12.5967 15.2945C14.5028 16.0383 14.8477 15.9548 15.1558 15.8803C15.2083 15.8676 15.2595 15.8552 15.3149 15.8501C15.5644 15.8267 15.9725 15.6559 16.316 15.416C16.6009 15.2171 16.8496 14.9656 16.9448 14.7009C17.0298 14.4641 17.0778 14.2442 17.1001 14.0632C17.1324 13.8003 17.1068 13.5934 17.059 13.5135L17.0583 13.5128C16.9856 13.393 16.8597 13.3336 16.671 13.2444C16.6377 13.2287 16.6021 13.2119 16.5679 13.1954L16.5681 13.1952C16.4379 13.129 15.9876 12.9088 15.6027 12.7269C15.354 12.6093 15.133 12.5083 15.0455 12.4769C14.9224 12.4327 14.8152 12.3992 14.7002 12.4122C14.5698 12.4269 14.4561 12.4941 14.3506 12.6537L14.3503 12.6535C14.2974 12.7331 14.2041 12.8523 14.1022 12.9772C13.9407 13.175 13.7481 13.3971 13.666 13.4903V13.491C13.6309 13.5309 13.6007 13.5526 13.5711 13.5562C13.5299 13.5612 13.4734 13.5443 13.3951 13.5059C13.3451 13.4808 13.2963 13.4598 13.2361 13.4338C12.9317 13.3025 12.3389 13.0467 11.6632 12.4485C11.4215 12.2346 11.2088 12.0007 11.0312 11.7813C10.7437 11.4261 10.5494 11.1097 10.4722 10.9765C10.4112 10.872 10.4789 10.8042 10.5415 10.7417L10.5411 10.7413C10.6103 10.6723 10.6885 10.5782 10.767 10.4839C10.8028 10.4409 10.8385 10.3979 10.882 10.3478L10.8827 10.3471C10.9886 10.224 11.0325 10.1343 11.0917 10.0133C11.1021 9.99225 11.1129 9.97017 11.1237 9.94848L11.1244 9.94782C11.1765 9.84283 11.1898 9.74294 11.1801 9.64938C11.1711 9.56227 11.142 9.48454 11.1064 9.41491L11.1067 9.41479Z" fill="#FFFFFE"/>
</g>
</g>
</g>
<defs>
<clipPath id="clip0_7_2396">
<rect width="24" height="24" fill="white"/>
</clipPath>
</defs>
</svg>
